<?xml version="1.0" encoding="iso-8859-1"?>
<!-- Generator: Adobe Illustrator 19.0.0, SVG Export Plug-In . SVG Version: 6.00 Build 0)  -->
<svg version="1.1" id="Layer_1" xmlns="http://www.w3.org/2000/svg" xmlns:xlink="http://www.w3.org/1999/xlink" x="0px" y="0px"
	 viewBox="0 0 512 512" style="enable-background:new 0 0 512 512;" xml:space="preserve">
<rect x="4" y="109.859" style="fill:#FFFFFF;"/>
<path style="fill:#E5E5E5;" d="M504,113.856v350.496H8V113.856H504 M512,105.856H0v366.496h512V105.856z"/>
<path d="M0,119.376V55.64c0.026-8.825,7.175-15.973,16-16h479.96c8.825,0.026,15.973,7.175,16,16v63.728H0V119.376z"/>
<polygon style="fill:#FFFFFF;" points="471.624,101.512 171.536,101.512 200.24,57.512 471.624,57.512 "/>
<circle style="fill:#E21B1B;" cx="53.904" cy="78.909" r="13.608"/>
<circle style="fill:#939393;" cx="89.973" cy="78.909" r="13.608"/>
<circle style="fill:#E2E2E2;" cx="126.057" cy="78.909" r="13.608"/>
<path d="M215.624,71.248l1.912,8.312c0.416,1.952,0.8,3.944,1.168,5.936h0.08c0.376-1.992,0.976-4,1.504-5.896l2.4-8.352h3.76
	l2.296,8.128c0.56,2.144,1.048,4.136,1.464,6.128h0.08c0.296-1.992,0.712-4,1.2-6.128l2.032-8.128h4.544l-5.752,18.312h-4.312
	l-2.176-7.448c-0.566-1.929-1.031-3.887-1.392-5.864h-0.08c-0.336,1.983-0.801,3.942-1.392,5.864l-2.328,7.448h-4.328l-5.424-18.312
	H215.624z"/>
<path d="M244.392,71.248l1.912,8.312c0.416,1.952,0.8,3.944,1.168,5.936h0.08c0.376-1.992,0.976-4,1.504-5.896l2.4-8.352h3.76
	l2.296,8.128c0.56,2.144,1.048,4.136,1.464,6.128h0.08c0.296-1.992,0.712-4,1.2-6.128l2.032-8.128h4.544L261.08,89.56h-4.288
	l-2.176-7.448c-0.566-1.929-1.031-3.887-1.392-5.864h-0.08c-0.336,1.983-0.801,3.942-1.392,5.864l-2.328,7.448h-4.328l-5.416-18.312
	H244.392z"/>
<path d="M273.16,71.248l1.912,8.312c0.416,1.952,0.8,3.944,1.168,5.936h0.08c0.376-1.992,0.976-4,1.504-5.896l2.4-8.352h3.76
	l2.296,8.128c0.56,2.144,1.048,4.136,1.464,6.128h0.08c0.296-1.992,0.712-4,1.2-6.128l2.032-8.128h4.544l-5.752,18.312h-4.328
	l-2.176-7.448c-0.566-1.929-1.031-3.887-1.392-5.864h-0.08c-0.336,1.983-0.801,3.942-1.392,5.864l-2.328,7.448h-4.328l-5.416-18.312
	H273.16z"/>
<path d="M296.312,87c-0.106-1.547,1.061-2.888,2.608-2.995c0.093-0.007,0.187-0.008,0.28-0.006c1.639,0.002,2.967,1.331,2.965,2.971
	c-0.002,1.637-1.329,2.963-2.965,2.965c-1.559,0.036-2.853-1.198-2.89-2.757C296.309,87.12,296.309,87.06,296.312,87z"/>
<polygon points="342.688,464.217 169.312,464.217 193.312,445.968 318.688,445.968 "/>
<rect y="459.591" width="511.995" height="12.768"/>
<polygon points="501.744,459.592 435.928,459.592 407.336,459.592 104.664,459.592 76.072,459.592 10.256,459.592 0,459.592 
	0,472.36 512,472.36 512,459.592 "/>
<polygon points="440.352,92.512 437.496,89.712 447.384,79.552 436.905,69.328 439.696,66.472 453.04,79.472 "/>
<rect x="421.621" y="77.509" width="26.412" height="4"/>
<polygon points="96.72,240.08 80.304,191.496 37.792,191.496 37.792,178.512 89.624,178.512 109.016,235.92 "/>
<circle cx="190.925" cy="361.776" r="25"/>
<circle cx="115.507" cy="361.776" r="25"/>
<polygon style="fill:#FFFFFF;" points="98.192,321.592 70.664,233.176 239.84,233.176 208.328,321.592 "/>
<path style="fill:#E21B1B;" d="M234.168,237.176L205.504,317.6H101.136l-25.04-80.424L234.168,237.176 M245.512,229.176H65.232
	L95.248,325.6h115.896l34.4-96.416L245.512,229.176z"/>
<rect x="299.168" y="183.428" style="fill:#E2E2E2;" width="172.458" height="52.497"/>
<rect x="299.168" y="256.39" style="fill:#E21B1B;" width="172.458" height="52.497"/>
<rect x="299.168" y="329.361" width="172.458" height="52.497"/>
<g>
</g>
<g>
</g>
<g>
</g>
<g>
</g>
<g>
</g>
<g>
</g>
<g>
</g>
<g>
</g>
<g>
</g>
<g>
</g>
<g>
</g>
<g>
</g>
<g>
</g>
<g>
</g>
<g>
</g>
</svg>
